<?xml version="1.0" standalone="no"?>
<!DOCTYPE svg PUBLIC "-//W3C//DTD SVG 20010904//EN"
 "http://www.w3.org/TR/2001/REC-SVG-20010904/DTD/svg10.dtd">
<svg version="1.0" xmlns="http://www.w3.org/2000/svg"
 width="2934.000000pt" height="574.000000pt" viewBox="0 0 2934.000000 574.000000"
 preserveAspectRatio="xMidYMid meet">
<metadata>
Created by potrace 1.13, written by Peter Selinger 2001-2015
</metadata>
<g transform="translate(0.000000,574.000000) scale(0.100000,-0.100000)"
stroke="none">
<path d="M1210 3265 l0 -1375 130 0 130 0 0 550 0 550 125 0 125 0 0 -550 0
-550 115 0 115 0 0 551 0 551 303 -4 c272 -5 308 -7 367 -26 157 -51 246 -234
196 -404 -18 -63 -77 -136 -137 -170 -22 -12 -38 -25 -37 -29 2 -3 47 -110
102 -238 l99 -231 41 0 41 0 175 548 175 547 146 3 146 3 141 -453 c78 -249
155 -497 172 -550 l31 -98 64 0 65 0 0 550 0 550 138 0 137 -1 183 -319 c101
-176 187 -322 190 -324 4 -2 6 142 4 320 l-3 324 96 0 95 0 0 -550 0 -550 393
1 c249 1 369 4 330 10 -118 15 -202 70 -248 162 l-26 52 33 7 c18 4 60 10 93
13 59 7 60 6 83 -25 32 -43 78 -60 160 -60 103 0 154 39 138 105 -8 30 -19 34
-163 56 -142 21 -210 47 -257 99 -67 74 -69 201 -6 288 55 76 144 113 275 114
150 2 233 -39 288 -141 21 -38 25 -52 15 -55 -7 -3 -42 -13 -77 -22 l-64 -17
-20 28 c-28 38 -75 55 -152 55 -57 0 -69 -3 -90 -25 -25 -24 -31 -50 -17 -71
15 -22 50 -33 162 -48 154 -20 185 -31 236 -78 51 -47 68 -91 67 -175 -1 -141
-102 -241 -266 -262 -47 -6 -12 -9 141 -10 l202 -1 0 950 0 950 238 0 237 0
324 -560 c177 -308 324 -560 325 -560 0 0 0 252 -2 560 l-3 560 170 0 171 0 2
-941 3 -941 359 933 c198 513 425 1115 505 1338 l146 406 63 0 63 0 81 -190
c44 -104 97 -230 118 -280 21 -49 232 -567 470 -1150 237 -583 434 -1062 436
-1064 2 -2 4 336 4 752 l0 757 -240 0 -240 0 0 190 0 190 695 0 695 0 0 -190
0 -190 -235 0 -235 0 0 -760 0 -760 558 1 c547 0 556 0 502 18 -199 63 -333
203 -387 402 -15 57 -17 139 -20 772 l-4 707 236 0 235 0 0 -647 c0 -714 3
-753 58 -823 15 -19 55 -48 87 -65 57 -29 66 -30 185 -30 110 0 131 3 177 24
62 27 116 84 134 138 10 29 14 200 17 721 l3 682 185 0 185 0 -4 -717 c-4
-782 -3 -778 -62 -896 -60 -118 -171 -206 -335 -263 l-65 -23 423 0 422 -1 0
950 0 950 413 0 c567 0 694 -13 829 -81 139 -70 247 -238 268 -417 23 -207
-54 -384 -212 -488 -41 -27 -83 -54 -94 -60 -17 -10 -6 -40 156 -432 l175
-422 163 0 162 0 0 950 0 950 675 0 675 0 0 -180 0 -180 -450 0 -450 0 0 -195
0 -195 355 0 355 0 0 -180 0 -180 -355 0 -355 0 0 -205 0 -205 450 0 450 0 0
-190 0 -190 43 0 c37 0 46 4 55 25 10 22 14 24 37 13 39 -18 52 2 31 46 -20
43 -10 100 26 149 13 17 30 48 38 67 7 19 40 76 73 125 140 207 188 283 214
332 45 86 54 65 38 -97 -4 -43 -18 -89 -40 -135 -18 -38 -43 -92 -55 -120 -12
-27 -31 -61 -42 -75 -32 -42 -98 -158 -98 -173 0 -22 67 -77 93 -77 13 0 38
-15 56 -34 32 -33 36 -34 129 -40 54 -4 124 -9 158 -12 48 -4 63 -2 74 11 16
19 9 28 -51 58 -32 16 -43 27 -42 42 2 11 3 58 3 105 1 47 5 110 10 140 6 30
14 103 19 162 l9 107 59 83 c79 110 127 193 147 254 30 91 71 137 91 104 7
-11 41 -129 75 -253 11 -43 32 -96 45 -117 14 -22 25 -46 25 -54 0 -25 -39
-38 -104 -34 l-61 3 2 -75 c4 -163 19 -285 41 -333 28 -61 48 -58 45 6 -2 29
5 67 18 98 32 83 128 194 149 173 33 -33 126 -385 113 -422 -3 -7 1 -19 8 -28
18 -22 75 -9 117 28 36 31 57 41 110 53 l34 7 -17 -33 c-17 -32 -17 -33 6 -52
20 -16 34 -18 89 -13 36 3 103 2 150 -2 94 -9 128 -4 144 21 12 20 -1 33 -44
43 -51 11 -140 73 -140 97 0 5 10 17 23 27 21 17 23 26 24 134 2 122 15 188
65 341 31 95 31 86 8 250 -4 33 -20 94 -34 135 -15 41 -37 115 -50 163 -27 99
-21 117 35 117 17 0 32 6 35 15 6 15 -21 155 -50 254 -8 30 -13 58 -11 61 8
14 87 21 100 10 11 -9 17 -5 29 19 20 38 20 61 0 90 -15 21 -23 23 -71 19 -72
-6 -81 9 -63 102 15 79 7 189 -21 288 -10 38 -10 45 7 63 18 20 18 21 0 35
-16 11 -18 18 -8 38 6 14 23 33 37 42 20 13 25 23 21 39 -4 14 0 28 9 35 8 7
12 16 9 21 -3 5 0 18 6 30 9 16 8 24 -4 38 -24 26 -19 41 13 41 32 0 68 27 53
42 -4 4 -28 10 -52 13 -30 3 -52 13 -74 34 -55 53 -115 62 -173 25 -24 -15
-53 -73 -53 -104 0 -9 9 -29 21 -44 25 -32 30 -114 8 -166 -8 -19 -34 -59 -57
-89 -67 -84 -88 -135 -102 -241 -7 -52 -20 -128 -31 -169 -19 -79 -14 -108 25
-140 21 -18 21 -140 0 -269 -16 -95 -16 -98 6 -157 12 -33 28 -76 35 -95 20
-55 28 -257 14 -332 -10 -52 -19 -69 -52 -101 -26 -26 -46 -37 -59 -34 -10 3
-32 -2 -49 -10 -17 -8 -34 -11 -39 -7 -4 5 -21 63 -38 129 -41 157 -43 163
-90 280 -57 142 -62 161 -62 224 0 62 16 131 30 131 19 0 101 -113 97 -132 -3
-11 7 -43 23 -73 22 -41 29 -49 33 -34 10 36 27 20 27 -26 0 -53 8 -56 38 -15
45 60 26 131 -57 213 -17 16 -60 87 -96 157 -72 142 -72 146 -55 303 10 87 9
98 -19 206 -22 87 -27 119 -19 137 10 20 48 45 91 58 11 4 17 16 17 36 0 23 6
33 25 42 20 9 25 18 25 49 0 21 9 61 20 88 30 77 12 121 -69 173 -37 23 -51
27 -85 21 -23 -3 -47 -10 -54 -16 -26 -21 -42 -80 -42 -158 0 -94 -6 -110 -65
-174 -25 -27 -57 -66 -71 -86 -30 -44 -70 -157 -79 -225 -10 -81 -37 -218 -45
-233 -14 -26 -40 43 -40 107 0 68 -29 188 -66 270 -31 69 -39 153 -20 226 8
30 18 91 22 135 l7 81 -41 40 c-36 36 -45 40 -89 40 -38 0 -54 -5 -71 -23 -32
-34 -45 -76 -43 -141 2 -87 -25 -135 -114 -201 -70 -52 -125 -107 -125 -126 0
-21 -17 -6 -29 26 -6 19 -29 49 -50 67 -38 33 -38 33 -36 104 3 78 19 114 52
114 30 0 40 20 17 36 -36 24 -56 49 -71 86 -15 39 -50 68 -80 68 -10 0 -36 7
-58 15 -35 12 -1023 14 -7442 15 l-7403 0 0 -1375z m1083 517 c54 -29 98 -85
130 -166 16 -39 21 -74 20 -151 0 -111 -19 -179 -73 -253 -66 -92 -221 -123
-334 -68 -168 82 -221 372 -101 553 76 114 233 151 358 85z m2447 11 c41 -16
96 -66 116 -105 16 -31 17 -29 -53 -52 l-52 -17 -39 40 c-37 39 -42 41 -95 41
-65 0 -97 -22 -97 -65 0 -40 30 -60 136 -89 134 -37 176 -63 208 -128 29 -58
31 -83 14 -139 -17 -57 -69 -113 -130 -139 -41 -17 -72 -23 -139 -23 -77 0
-94 3 -146 29 -59 30 -123 98 -123 133 0 23 131 52 138 31 3 -7 17 -26 32 -43
25 -28 35 -32 96 -35 59 -3 73 -1 97 18 20 16 27 30 27 56 0 41 -33 66 -114
85 -125 29 -208 78 -232 135 -39 92 7 213 99 261 66 34 183 37 257 6z m-3200
-113 c35 -71 67 -130 70 -130 3 0 35 59 70 130 l64 130 69 0 69 0 -25 -42
c-13 -24 -63 -115 -110 -204 l-87 -160 0 -142 0 -142 -75 0 -75 0 0 148 0 149
-86 159 c-47 87 -95 176 -105 197 l-19 37 88 0 88 0 64 -130z m1180 -102 c0
-260 6 -300 50 -323 59 -30 166 -12 186 32 4 10 10 132 12 271 l4 252 65 0 65
0 -5 -262 c-2 -152 -9 -278 -16 -299 -14 -45 -53 -82 -116 -110 -75 -33 -215
-31 -288 4 -56 28 -86 61 -105 116 -8 23 -12 121 -12 292 l0 259 80 0 80 0 0
-232z m940 162 l0 -70 -85 0 -85 0 0 -275 0 -275 -75 0 -75 0 0 275 0 275 -90
0 -90 0 0 70 0 70 250 0 250 0 0 -70z m220 -65 l0 -135 115 0 115 0 0 135 0
135 75 0 75 0 0 -345 0 -345 -75 0 -75 0 0 140 0 140 -115 0 -115 0 0 -140 0
-140 -75 0 -75 0 0 345 0 345 75 0 75 0 0 -135z m2170 -295 l0 -270 -55 0
c-53 0 -55 1 -55 26 l0 26 -36 -32 c-29 -25 -42 -30 -63 -25 -59 15 -91 77
-91 180 0 144 70 217 153 161 l37 -25 0 114 0 115 55 0 55 0 0 -270z m-917 79
c12 -6 30 -21 39 -33 l18 -21 0 28 c0 26 2 27 55 27 l55 0 0 -175 0 -175 -55
0 c-53 0 -55 1 -55 27 l0 28 -25 -27 c-51 -55 -105 -43 -142 32 -47 92 -20
254 47 287 31 16 36 16 63 2z m490 0 c40 -18 47 -50 47 -204 l0 -145 -50 0
-50 0 0 106 c0 116 -9 144 -44 144 -32 0 -36 -15 -36 -141 l0 -109 -50 0 -50
0 0 175 0 175 50 0 c47 0 50 -2 50 -25 0 -14 5 -25 10 -25 6 0 10 5 10 10 0
12 59 50 77 50 7 0 23 -5 36 -11z m10722 -413 c6 -43 3 -68 -15 -118 -12 -35
-24 -101 -27 -148 -5 -75 -9 -89 -34 -118 -16 -18 -29 -39 -29 -46 0 -7 -18
-48 -41 -90 -31 -60 -89 -198 -89 -213 0 -1 -10 -7 -21 -14 -22 -11 -22 -10
-15 52 4 34 32 137 62 228 54 163 78 247 113 384 10 42 24 73 35 79 9 5 21 21
26 34 15 39 28 28 35 -30z m-11115 -156 l0 -90 -72 -130 -73 -130 -37 0 c-21
0 -38 2 -38 5 0 3 23 50 50 105 28 55 50 102 50 105 0 3 -22 5 -50 5 l-50 0 0
110 0 110 110 0 110 0 0 -90z m12579 -396 c-11 -32 -22 -84 -24 -114 -6 -84
-26 -202 -36 -223 -13 -24 -68 -57 -96 -57 -39 0 -118 116 -177 264 -16 39 -9
66 18 66 6 0 71 19 145 43 108 34 138 47 154 70 32 42 40 18 16 -49z"/>
<path d="M2087 3664 c-39 -39 -52 -88 -52 -199 0 -160 36 -225 125 -225 89 0
125 64 125 225 0 161 -36 225 -125 225 -38 0 -53 -5 -73 -26z"/>
<path d="M23420 4598 c-14 -6 -39 -18 -57 -26 -18 -7 -37 -11 -43 -7 -6 4 -16
2 -23 -3 -37 -29 -89 -23 -187 21 l-45 20 -60 -32 c-34 -17 -70 -31 -81 -31
-24 0 -48 -24 -59 -59 -4 -12 -17 -38 -30 -57 -13 -18 -31 -57 -41 -85 -11
-28 -24 -54 -31 -56 -6 -3 -47 3 -90 12 -43 9 -139 30 -213 45 -350 75 -435
96 -472 118 -29 17 -30 16 -48 -8 -17 -22 -20 -23 -25 -7 -4 9 -14 17 -23 17
-8 0 -24 7 -34 16 -13 12 -37 17 -86 18 -61 0 -73 -3 -129 -38 -63 -39 -125
-65 -155 -66 -10 0 -25 -12 -35 -27 -9 -16 -27 -41 -40 -56 -14 -18 -23 -42
-23 -63 0 -19 -6 -49 -14 -67 -7 -18 -16 -59 -21 -92 -7 -57 -10 -62 -81 -134
-55 -56 -78 -73 -88 -66 -7 6 -33 23 -57 40 -24 16 -65 46 -90 67 -26 21 -56
38 -68 38 -12 0 -38 10 -59 23 -20 12 -46 27 -57 33 -30 16 -64 71 -58 95 6
21 46 55 103 86 36 20 99 119 100 156 1 53 -98 157 -149 157 -43 0 -79 -58
-119 -195 -5 -19 -18 -33 -35 -39 -25 -9 -32 -5 -80 45 -28 29 -65 61 -80 69
-29 14 -29 14 -98 -58 -38 -40 -76 -72 -83 -72 -8 0 -20 -7 -27 -17 -8 -9 -28
-22 -46 -29 -25 -11 -35 -24 -49 -66 -9 -29 -27 -74 -40 -100 -13 -26 -24 -57
-24 -68 0 -11 -10 -40 -21 -62 -32 -63 -32 -179 1 -234 l24 -41 -23 -71 c-13
-39 -21 -82 -18 -94 28 -116 39 -138 67 -138 29 0 50 -35 60 -101 5 -35 14
-88 20 -118 9 -45 9 -66 -4 -117 -9 -35 -16 -72 -16 -84 0 -11 -11 -47 -25
-80 -14 -33 -25 -76 -25 -96 0 -20 -6 -48 -14 -62 -22 -42 -53 -124 -61 -161
-4 -19 -25 -71 -47 -115 -51 -106 -53 -109 -65 -113 -13 -5 -7 400 7 443 7 19
10 105 8 216 -2 208 7 403 22 443 14 38 12 81 -4 95 -8 6 -12 18 -9 26 3 8 0
14 -6 14 -6 0 -11 -4 -11 -9 0 -5 -20 -30 -44 -56 -43 -45 -46 -46 -68 -31
-12 9 -34 16 -48 16 -15 0 -35 7 -46 15 -10 8 -29 15 -40 15 -12 0 -27 6 -34
14 -6 8 -21 16 -33 18 -18 2 -22 9 -20 33 5 60 21 181 28 206 4 16 2 29 -4 33
-7 4 -11 43 -12 94 -1 101 -16 137 -69 164 -19 10 -38 26 -41 35 -9 23 37 110
61 116 23 6 38 100 20 122 -8 10 -11 32 -8 60 9 80 -50 145 -132 145 -38 0
-56 -14 -79 -58 -15 -28 -21 -101 -10 -123 13 -27 -11 -154 -34 -181 l-22 -25
-170 8 c-93 4 -181 11 -195 14 -57 14 -100 -82 -100 -222 0 -93 14 -149 40
-163 27 -15 25 -32 -7 -66 -27 -28 -28 -33 -27 -134 0 -58 4 -143 8 -189 5
-58 4 -81 -3 -76 -6 3 -11 14 -12 23 -1 19 -27 62 -116 189 -59 85 -61 91 -64
158 -2 39 -2 112 -1 163 2 79 5 95 24 114 18 18 19 23 7 32 -9 6 -16 30 -16
56 -1 25 -4 64 -8 86 -4 26 -3 44 4 48 6 4 11 18 11 30 0 13 7 29 15 36 9 8
15 30 15 57 0 24 7 54 15 67 13 20 13 27 -2 63 -23 52 -67 83 -120 83 -45 0
-61 -15 -95 -91 -14 -31 -14 -39 -2 -68 15 -36 19 -121 6 -121 -5 0 -25 -16
-45 -35 -25 -25 -45 -35 -67 -35 -23 0 -33 -6 -42 -24 -6 -14 -25 -30 -42 -37
-17 -7 -45 -23 -63 -36 -17 -12 -44 -23 -58 -23 -22 0 -26 -3 -20 -17 12 -33
10 -36 -25 -47 -55 -17 -60 -23 -60 -79 -1 -29 -7 -63 -15 -77 -8 -14 -14 -37
-15 -52 0 -15 -4 -29 -9 -32 -5 -3 -12 -54 -16 -113 -4 -60 -9 -116 -11 -126
-4 -11 1 -20 13 -24 29 -10 53 -35 53 -54 0 -25 27 -49 56 -49 14 0 43 -9 65
-21 35 -17 40 -24 34 -42 -11 -33 -5 -199 8 -222 12 -23 25 -95 35 -205 4 -41
11 -81 15 -88 5 -7 10 -51 11 -98 2 -47 7 -89 12 -94 5 -5 27 -10 49 -12 38
-3 40 -4 40 -38 0 -35 0 -35 -55 -42 -66 -8 -160 -30 -177 -41 -16 -10 -17
-40 -1 -70 20 -39 23 -44 42 -70 18 -26 33 -73 43 -132 7 -44 44 -115 66 -126
10 -6 25 -8 34 -5 12 5 13 21 8 95 -7 86 -6 92 19 135 28 48 65 63 67 29 3
-113 -1 -235 -10 -251 -6 -11 -11 -38 -11 -58 0 -21 -5 -53 -12 -71 -21 -57
-6 -67 98 -68 61 -1 99 -7 121 -18 30 -16 32 -16 55 3 l23 20 -24 20 c-13 11
-29 20 -36 20 -16 0 -55 51 -55 72 0 7 -14 33 -30 57 -29 42 -30 48 -30 155 1
61 5 131 11 156 5 25 12 68 16 95 6 55 42 105 76 105 23 0 117 42 117 52 0 5
10 8 23 8 13 0 28 5 35 12 17 17 15 148 -3 172 -8 10 -12 23 -9 28 6 10 -34
138 -47 152 -5 6 -9 20 -9 32 0 13 -4 26 -10 29 -5 3 -10 21 -10 38 0 18 -7
43 -16 55 -11 16 -14 34 -9 61 6 34 2 45 -27 83 -48 63 -63 102 -52 140 16 55
36 57 87 9 25 -24 49 -56 52 -72 4 -16 11 -31 16 -34 5 -4 9 -39 9 -79 0 -53
4 -77 15 -86 20 -17 45 3 45 37 0 24 1 23 34 -11 l33 -36 104 0 c57 0 111 -5
119 -10 24 -15 27 -175 5 -217 -17 -32 -17 -32 9 -63 15 -18 26 -44 26 -60 0
-24 -76 -279 -100 -335 -4 -11 -22 -63 -39 -115 -45 -140 -53 -163 -62 -182
-12 -24 -11 -48 1 -48 6 0 13 8 16 18 3 9 11 31 19 47 20 45 39 99 40 110 1 6
4 17 7 25 3 8 11 31 18 50 7 19 15 47 17 63 3 15 9 30 14 33 5 3 9 14 9 24 0
10 11 32 25 47 l24 28 -5 -40 c-3 -22 -12 -57 -20 -78 -22 -59 -19 -102 21
-252 18 -70 29 -128 25 -140 -10 -35 -17 -191 -8 -196 14 -9 68 -1 84 12 19
15 92 18 104 4 6 -7 8 -20 4 -29 -7 -19 -1 -20 146 -17 86 2 108 6 124 21 26
25 14 50 -24 50 -38 0 -105 66 -120 118 -10 39 -4 164 10 197 5 11 11 38 15
60 3 22 10 65 16 95 5 30 12 72 15 92 3 21 12 42 20 49 18 15 19 146 2 186 -7
15 -15 78 -20 138 -10 149 -17 206 -30 232 -6 12 -8 32 -5 44 4 15 0 30 -10
41 -16 18 -12 47 17 124 4 11 4 28 -1 37 -6 11 -6 24 1 36 5 11 10 36 10 55 0
31 3 36 24 36 14 0 27 -4 30 -9 3 -4 31 -11 61 -14 31 -3 62 -10 68 -15 7 -5
44 -12 84 -14 105 -5 110 -13 106 -140 -2 -57 -7 -184 -13 -284 -6 -99 -7
-200 -4 -225 3 -24 -2 -140 -10 -258 -17 -223 -20 -378 -10 -405 12 -32 24
-15 24 34 0 46 2 50 24 50 15 0 42 -17 72 -45 l47 -45 -23 -51 c-15 -31 -23
-64 -21 -87 3 -54 3 -64 -5 -95 l-6 -27 2663 2 2664 3 60 23 c78 31 111 52
160 101 44 46 55 49 80 21 20 -22 45 -26 62 -9 6 6 26 14 45 18 43 9 52 46 15
60 -33 13 -42 28 -26 47 9 11 22 14 44 10 26 -5 36 -1 67 31 49 52 66 103 49
146 -27 67 -26 70 50 174 40 54 77 103 83 108 6 6 24 28 41 50 16 22 35 45 41
50 7 6 33 43 59 83 25 39 49 72 53 72 12 0 32 -23 32 -36 0 -7 -30 -43 -67
-81 -78 -80 -83 -86 -107 -133 -44 -86 -51 -123 -50 -240 1 -99 5 -124 28
-179 56 -139 132 -222 253 -277 72 -33 78 -34 166 -29 75 4 100 10 145 35 31
17 59 30 63 30 4 0 9 -15 11 -32 l3 -33 85 -8 c47 -4 148 -6 225 -5 l140 3 3
25 c3 22 -6 30 -63 59 -36 19 -70 42 -75 52 -12 21 18 205 49 314 12 38 24 99
28 135 3 37 17 86 31 114 23 45 24 54 13 95 -6 25 -16 84 -21 131 -21 178 -41
306 -52 342 -7 26 -8 45 -1 60 7 16 5 35 -7 68 -10 26 -20 97 -24 160 -4 63
-10 127 -13 142 -5 25 -3 28 23 28 49 0 87 85 109 245 19 129 19 131 67 184
46 51 48 52 84 42 38 -11 90 -5 100 11 3 5 -1 17 -10 27 -21 23 -20 60 0 82
28 31 11 49 -49 49 -29 0 -59 -6 -65 -12 -18 -18 -142 -11 -165 10 -10 9 -30
16 -45 17 -25 0 -27 4 -32 52 -6 56 -31 93 -82 119 -44 23 -74 17 -111 -21
-34 -35 -47 -70 -47 -126 0 -26 -35 -104 -61 -135 -6 -8 -27 -14 -46 -14 -48
0 -95 -48 -117 -120 -9 -30 -21 -70 -27 -88 -9 -27 -7 -38 6 -59 13 -19 15
-31 7 -47 -37 -79 -57 -209 -42 -284 5 -30 13 -59 17 -65 5 -7 10 -57 13 -112
4 -80 8 -100 20 -100 11 0 16 15 18 59 3 53 4 57 17 40 9 -12 14 -45 15 -91 0
-70 13 -100 31 -72 5 8 9 26 9 42 0 28 13 36 27 15 26 -42 58 -488 34 -488 -6
0 -37 17 -70 39 -38 24 -79 41 -108 46 -61 8 -93 29 -93 58 0 13 -7 32 -15 43
-22 29 -18 53 10 66 31 14 33 57 6 133 l-18 50 -67 5 c-58 4 -71 9 -91 32 -12
14 -26 43 -29 65 -4 21 -23 70 -41 108 -70 145 -75 162 -75 258 0 80 3 94 24
122 14 18 40 36 63 43 34 10 41 18 67 78 26 58 28 70 18 98 -7 18 -12 50 -12
72 0 37 -19 79 -44 96 -6 4 -33 8 -60 8 -45 0 -52 -4 -97 -49 -44 -44 -49 -52
-49 -94 0 -36 -5 -49 -22 -62 -22 -15 -24 -14 -40 6 -10 12 -18 29 -18 39 0
25 -17 29 -75 18 -49 -9 -121 -21 -220 -38 -67 -11 -151 -41 -171 -62 -14 -13
-17 -32 -15 -83 2 -46 -2 -73 -13 -90 -12 -17 -13 -31 -6 -56 11 -37 4 -51
-53 -111 -19 -21 -49 -58 -66 -83 -29 -42 -31 -54 -35 -148 -3 -56 -8 -118
-11 -137 -8 -50 11 -79 80 -121 33 -20 65 -47 71 -60 6 -13 21 -45 33 -70 27
-57 22 -102 -18 -150 l-28 -32 -20 20 c-34 34 -114 39 -219 13 -133 -32 -202
-91 -264 -223 -23 -50 -37 -55 -86 -37 -14 6 -52 12 -83 14 -59 4 -195 59
-220 90 -7 9 -25 16 -40 16 -15 0 -31 4 -37 10 -5 5 -45 19 -88 30 -109 29
-116 35 -116 95 0 74 12 86 45 47 28 -33 60 -41 96 -22 27 15 24 34 -16 107
-19 35 -35 70 -35 77 0 7 20 29 45 48 51 40 141 117 194 166 45 42 141 87 206
96 95 13 175 52 264 129 168 143 180 224 52 340 -45 41 -47 41 -116 -7 -109
-76 -171 -146 -287 -326 -34 -52 -92 -128 -131 -170 -38 -41 -84 -90 -101
-109 -44 -48 -131 -121 -144 -121 -6 0 -19 15 -31 33 -28 45 -62 75 -91 79
-17 2 -26 10 -28 26 -2 13 -10 26 -17 28 -8 4 -16 30 -20 70 -9 77 -34 117
-69 108 -20 -5 -25 0 -35 27 -6 17 -11 51 -11 74 0 54 -37 91 -104 104 -45 8
-50 7 -81 -21 -41 -35 -70 -114 -61 -167 3 -20 7 -45 8 -55 2 -13 -9 -27 -32
-42 -19 -13 -43 -30 -53 -39 -17 -15 -17 -18 -3 -38 29 -39 30 -49 12 -111 -9
-34 -25 -117 -36 -186 -10 -69 -25 -144 -34 -167 -20 -57 -74 -182 -92 -215
-8 -15 -22 -67 -30 -115 -28 -157 -42 -160 -147 -32 -49 61 -83 75 -141 60
-78 -19 -154 -14 -202 14 -63 37 -73 56 -67 126 4 40 0 78 -11 120 -15 51 -16
72 -7 123 24 144 42 308 36 324 -4 9 -9 60 -11 112 -1 52 -8 111 -13 130 -13
41 -15 409 -3 428 9 14 107 52 134 52 11 0 23 -14 32 -34 15 -36 45 -61 118
-95 27 -13 50 -27 53 -31 9 -15 63 -38 105 -45 46 -8 51 -25 20 -65 -11 -14
-20 -28 -20 -32 0 -3 -18 -44 -39 -90 -21 -45 -50 -110 -64 -143 -49 -119 -79
-191 -103 -243 -13 -29 -24 -59 -24 -67 0 -8 -9 -29 -20 -47 -11 -18 -20 -42
-20 -53 0 -11 -7 -29 -15 -39 -8 -11 -15 -34 -14 -50 0 -17 3 -24 6 -16 2 8 9
24 13 35 5 11 21 52 35 90 14 39 32 79 39 90 7 11 22 45 34 76 11 31 44 105
73 165 28 60 62 137 75 172 13 34 39 93 58 130 30 60 38 68 62 67 25 0 30 6
48 59 28 85 17 98 -72 80 -44 -9 -81 12 -99 54 -9 21 -20 32 -33 32 -11 0 -20
4 -20 10 0 5 -9 18 -21 29 -12 11 -18 25 -14 31 4 6 -3 22 -15 35 -19 21 -21
29 -12 52 14 39 18 127 8 169 -7 27 27 43 50 23 12 -10 24 -8 64 11 26 12 51
30 54 39 4 9 13 27 21 41 17 29 20 107 5 145 -9 24 -68 86 -80 84 -3 0 -16 -5
-30 -11z m-1406 -178 c52 -18 686 -170 706 -170 10 0 21 -4 25 -10 7 -11 -34
-78 -88 -142 -36 -43 -39 -52 -40 -110 -2 -60 1 -68 42 -131 38 -58 42 -71 33
-90 -29 -57 -66 -161 -77 -214 -3 -17 -13 -34 -21 -37 -8 -3 -14 -16 -14 -30
0 -36 -19 -81 -29 -70 -5 5 -21 47 -36 92 -17 52 -38 93 -54 108 -30 28 -46
31 -36 7 22 -58 36 -106 32 -116 -6 -18 -61 97 -100 210 -20 55 -50 129 -68
164 -18 35 -49 111 -69 169 -49 142 -127 258 -204 307 -52 32 -66 50 -49 66 8
9 11 9 47 -3z m-963 -486 c53 -27 74 -44 84 -67 17 -40 6 -62 -51 -107 -25
-19 -55 -43 -66 -53 -12 -9 -39 -23 -61 -29 -36 -11 -44 -10 -94 17 -81 42
-86 54 -77 179 l7 105 94 -5 c83 -4 102 -8 164 -40z m-357 -170 c15 -52 33
-79 73 -106 32 -23 49 -27 103 -28 65 0 110 -17 110 -42 0 -6 -13 -40 -30 -75
-18 -37 -30 -79 -30 -103 0 -33 -6 -45 -38 -75 -43 -39 -62 -88 -62 -156 0
-45 -31 -142 -55 -169 -7 -8 -27 -43 -44 -77 -17 -35 -36 -63 -42 -63 -6 0
-19 -10 -29 -22 -10 -13 -34 -32 -55 -42 -46 -25 -58 -12 -50 53 4 37 1 49
-17 68 -20 22 -21 31 -20 230 0 116 6 227 12 254 8 34 9 58 1 85 -17 59 -13
99 9 119 11 10 20 31 20 46 0 32 23 59 51 59 13 0 25 11 34 33 24 57 44 61 59
11z m2150 -257 c11 -39 18 -88 17 -107 -7 -116 -4 -227 8 -315 12 -89 12 -104
-2 -131 -26 -51 -31 -98 -12 -133 9 -18 14 -38 12 -44 -4 -13 -137 175 -175
248 -39 76 -42 113 -20 228 23 123 44 184 74 217 12 14 32 44 44 68 12 23 25
42 29 42 3 0 15 -33 25 -73z m3221 -14 c14 -27 35 -70 45 -98 54 -147 94 -242
116 -270 47 -62 24 -89 -77 -89 -63 -1 -69 1 -69 19 1 11 14 45 30 75 17 30
30 62 30 70 -1 32 -91 111 -200 175 -76 45 -109 97 -77 123 6 5 27 13 44 17
18 3 35 11 38 16 4 5 26 9 50 9 41 0 45 -2 70 -47z m-235 -333 c32 -25 39 -25
67 1 18 18 25 20 38 9 8 -7 15 -20 15 -30 0 -23 -77 -100 -100 -100 -26 0 -31
-11 -15 -34 21 -28 19 -60 -5 -81 -30 -27 -54 -3 -46 44 9 53 9 51 -16 117
-19 52 -20 64 -9 78 18 21 40 20 71 -4z m457 -166 c13 -33 -17 -103 -77 -181
-33 -43 -82 -106 -108 -140 -58 -77 -72 -79 -167 -20 -85 53 -94 75 -58 144
14 26 40 64 57 83 18 19 49 56 69 81 l36 47 121 1 c104 1 121 -1 127 -15z
m-6789 -146 c26 -32 62 -109 62 -133 0 -14 7 -37 17 -51 15 -23 15 -28 0 -60
-10 -19 -17 -43 -17 -54 0 -10 -4 -29 -9 -42 -28 -75 -33 -112 -35 -262 -1
-138 -4 -166 -19 -190 -25 -38 -54 -31 -94 24 -18 25 -42 54 -54 66 -19 20
-20 29 -16 205 5 206 14 264 45 304 17 22 22 41 22 90 0 48 5 68 21 89 22 28
60 34 77 14z m7131 -58 c9 -5 30 -13 46 -20 17 -6 48 -26 69 -45 l40 -33 -14
-59 c-16 -69 -21 -512 -7 -557 9 -25 6 -31 -24 -55 -65 -51 -180 -84 -244 -71
-166 35 -279 147 -325 320 -41 152 0 315 106 429 66 70 81 65 106 -34 9 -37
21 -72 27 -78 6 -6 11 -27 11 -48 0 -22 8 -47 21 -62 11 -15 26 -55 33 -89 13
-66 24 -76 71 -64 41 10 45 88 4 101 -41 13 -95 130 -125 273 -15 71 -12 85
19 101 24 11 159 5 186 -9z m-1240 -10 c19 -5 43 -18 55 -30 l21 -21 -27 -48
c-15 -28 -24 -57 -21 -69 5 -21 -20 -73 -77 -159 -32 -50 -50 -65 -50 -44 0
14 -170 116 -217 129 -24 7 -43 19 -43 26 0 39 161 202 208 211 15 3 38 10 52
15 14 4 34 6 45 3 11 -2 35 -8 54 -13z m-4981 -10 c7 -11 10 -31 7 -43 -4 -15
1 -32 16 -51 24 -30 40 -31 127 -5 37 12 44 11 52 -1 16 -25 0 -64 -41 -100
-21 -20 -39 -45 -39 -56 0 -11 -15 -46 -34 -77 -19 -31 -49 -86 -68 -122 -29
-58 -39 -69 -87 -92 -31 -15 -68 -26 -86 -25 -19 2 -37 -4 -45 -13 -18 -22
-26 -19 -50 21 -19 29 -22 46 -18 101 4 59 7 69 35 92 34 29 53 60 53 88 0 10
9 29 20 43 11 14 20 39 20 57 0 18 16 63 37 100 57 107 76 122 101 83z m3452
-45 c7 -8 19 -15 27 -15 11 0 13 -6 8 -22 -3 -13 -9 -33 -12 -44 -5 -24 -160
-170 -170 -161 -10 10 39 141 62 167 13 14 30 40 39 58 18 36 28 39 46 17z
m1717 -35 c22 -27 23 -32 14 -138 -5 -60 -7 -120 -4 -133 8 -42 -22 -58 -96
-50 l-64 6 -15 41 -15 42 53 108 c29 60 57 119 63 132 14 30 37 27 64 -8z
m-1686 -162 c4 -15 2 -36 -5 -50 -12 -25 -144 -98 -177 -98 -30 0 -22 25 18
56 20 15 60 50 88 76 27 26 54 46 59 45 6 -2 13 -15 17 -29z m1607 -201 c58
-18 79 -40 65 -69 -6 -13 -16 -42 -22 -65 -15 -53 -3 -79 45 -99 19 -8 34 -18
34 -22 0 -10 -43 -49 -87 -80 -75 -52 -235 -55 -320 -6 -53 30 -83 53 -83 64
0 4 12 10 28 13 72 15 146 99 157 180 7 50 24 67 68 67 14 0 30 7 37 15 15 18
23 18 78 2z"/>
<path d="M8532 3678 c-95 -292 -171 -532 -170 -533 2 -1 77 -53 168 -116 91
-64 170 -118 176 -122 10 -6 521 57 529 65 4 4 -514 1220 -524 1230 -4 5 -84
-231 -179 -524z"/>
<path d="M13220 3210 l0 -242 233 4 c218 3 235 4 274 25 78 42 123 125 123
225 0 79 -39 154 -102 195 l-41 28 -244 3 -243 4 0 -242z"/>
<path d="M6448 2530 l2 -640 375 0 374 0 -62 108 c-35 59 -202 347 -372 640
-170 292 -311 532 -315 532 -3 0 -4 -288 -2 -640z"/>
<path d="M2210 2650 l0 -140 125 0 c87 0 136 4 160 14 48 21 75 68 75 135 0
49 -3 57 -39 92 l-39 39 -141 0 -141 0 0 -140z"/>
<path d="M3360 2608 c-17 -56 -44 -143 -59 -193 l-28 -90 115 -3 c63 -1 117
-1 119 2 4 4 -105 377 -112 384 -2 2 -18 -43 -35 -100z"/>
<path d="M13220 2270 l0 -380 310 0 c171 0 310 3 310 8 0 4 -65 174 -144 377
l-143 370 -166 3 -167 2 0 -380z"/>
<path d="M4238 2263 c2 -202 5 -369 6 -371 2 -1 98 -1 214 0 l211 3 -212 367
c-117 202 -214 368 -217 368 -3 0 -4 -165 -2 -367z"/>
<path d="M2210 2100 l0 -210 176 0 176 0 -6 23 c-3 12 -39 105 -80 207 l-74
185 -96 3 -96 3 0 -211z"/>
<path d="M3184 2033 c-14 -49 -30 -100 -35 -115 l-8 -28 251 0 c234 0 250 1
245 18 -2 9 -17 61 -33 114 l-29 98 -182 0 -182 0 -27 -87z"/>
<path d="M1591 1687 c-6 -35 -11 -69 -11 -75 0 -8 25 -12 79 -12 l80 0 11 58
c6 31 14 65 16 75 5 15 -3 17 -79 17 l-85 0 -11 -63z"/>
<path d="M2185 1728 c-11 -48 -145 -713 -145 -720 0 -5 42 -8 94 -8 l93 0 75
375 75 375 -93 0 c-89 0 -94 -1 -99 -22z"/>
<path d="M4885 1728 c-11 -48 -145 -713 -145 -720 0 -5 42 -8 94 -8 l93 0 75
375 75 375 -93 0 c-89 0 -94 -1 -99 -22z"/>
<path d="M5790 1693 c-6 -32 -14 -66 -16 -75 -5 -16 3 -18 79 -18 l84 0 7 43
c4 23 9 57 12 75 l6 32 -80 0 -81 0 -11 -57z"/>
<path d="M6006 1733 c-3 -10 -8 -36 -11 -58 -4 -22 -9 -48 -12 -57 -4 -16 5
-18 80 -18 l84 0 7 43 c4 23 9 57 12 75 l6 32 -80 0 c-68 0 -81 -3 -86 -17z"/>
<path d="M14715 1728 c-3 -13 -25 -122 -51 -243 -58 -282 -61 -293 -84 -305
-30 -16 -160 -13 -166 4 -3 8 6 74 21 148 14 73 27 139 28 147 2 17 -164 76
-173 61 -3 -5 -21 -86 -39 -179 -21 -107 -39 -175 -49 -183 -22 -18 -6245 -19
-6263 -1 -9 9 -6 44 16 155 15 79 28 147 29 152 2 13 -167 68 -174 56 -3 -5
-21 -86 -39 -179 -18 -94 -39 -175 -46 -181 -17 -14 -382 -23 -523 -13 l-113
8 32 43 c69 93 100 253 60 303 l-19 24 -262 0 -262 0 -20 -25 c-17 -21 -19
-35 -15 -80 6 -65 48 -174 88 -230 l29 -40 -150 0 c-127 0 -152 2 -157 15 -3
9 7 79 22 156 16 81 24 144 19 148 -5 5 -44 20 -87 34 -56 19 -79 23 -82 14
-2 -7 -18 -86 -36 -175 -18 -90 -39 -170 -46 -178 -21 -21 -621 -21 -629 0 -3
8 8 86 25 174 17 87 31 166 31 174 0 13 -14 12 -87 -9 -49 -14 -93 -30 -100
-37 -11 -11 -83 -338 -83 -381 0 -38 21 -75 51 -91 42 -21 915 -21 946 1 19
13 22 13 27 0 8 -21 329 -21 451 0 70 12 94 13 123 3 26 -8 167 -13 455 -15
381 -4 421 -3 437 12 17 16 21 16 42 1 20 -15 306 -16 3222 -16 2918 0 3201 1
3217 16 16 15 20 15 41 0 20 -14 72 -16 418 -16 445 0 448 1 483 72 18 37 87
370 87 420 0 16 -9 33 -22 42 -32 22 -111 20 -156 -4 -20 -11 -113 -89 -207
-174 -93 -84 -171 -151 -173 -147 -2 6 81 422 103 519 5 22 4 22 -90 22 -90 0
-95 -1 -100 -22z m-7715 -363 c11 -13 9 -24 -9 -63 -34 -72 -65 -105 -89 -98
-28 9 -100 89 -108 121 -11 45 9 55 106 55 67 0 91 -4 100 -15z m8194 -42
c-24 -133 -49 -156 -164 -151 l-72 3 114 92 c62 50 117 92 121 92 4 1 5 -16 1
-36z"/>
<path d="M16871 1687 c-6 -35 -11 -69 -11 -75 0 -8 25 -12 79 -12 l80 0 11 58
c6 31 14 65 16 75 5 15 -3 17 -79 17 l-85 0 -11 -63z"/>
<path d="M17466 1733 c-3 -10 -33 -154 -67 -321 -57 -276 -61 -306 -50 -343
21 -69 22 -69 497 -69 461 0 468 1 498 64 18 37 98 392 94 414 -4 20 -167 76
-173 59 -2 -7 -18 -86 -36 -175 -18 -90 -38 -170 -45 -177 -28 -28 -601 -32
-629 -4 -6 6 10 108 46 289 l56 280 -93 0 c-80 0 -93 -2 -98 -17z"/>
<path d="M18288 1675 l-15 -75 83 0 83 0 11 58 c6 31 12 65 14 75 4 15 -5 17
-79 17 l-82 0 -15 -75z"/>
<path d="M18615 1728 c-11 -48 -145 -713 -145 -720 0 -5 42 -8 94 -8 l93 0 75
375 75 375 -93 0 c-89 0 -94 -1 -99 -22z"/>
<path d="M23934 1724 c-4 -15 -39 -175 -79 -357 -55 -252 -77 -333 -91 -344
-21 -15 -259 -19 -269 -3 -3 5 15 111 40 237 24 125 41 230 37 234 -8 7 -164
60 -168 56 -7 -8 -114 -559 -114 -589 0 -20 5 -49 12 -63 23 -50 48 -55 290
-55 236 0 282 6 316 43 33 35 45 79 132 475 45 202 83 373 85 380 3 9 -19 12
-90 12 -94 0 -95 0 -101 -26z"/>
<path d="M24266 1733 c-3 -10 -33 -154 -67 -321 -57 -276 -61 -306 -50 -343
21 -71 1 -69 692 -69 677 0 662 -1 693 64 18 37 98 392 94 414 -2 9 -37 27
-85 43 l-83 28 -9 -37 c-5 -20 -22 -99 -37 -175 -15 -76 -33 -145 -40 -152
-20 -19 -272 -28 -665 -23 -248 3 -342 7 -351 16 -10 10 -1 73 43 292 l56 280
-93 0 c-80 0 -93 -2 -98 -17z"/>
<path d="M25345 1728 c-14 -64 -25 -114 -25 -120 0 -5 38 -8 84 -8 l83 0 7 53
c4 28 10 62 13 75 5 21 3 22 -76 22 -75 0 -81 -1 -86 -22z"/>
<path d="M25555 1738 c-6 -19 -25 -117 -25 -129 0 -6 33 -9 82 -7 l82 3 12 65
c7 36 13 68 13 73 2 13 -159 8 -164 -5z"/>
<path d="M1335 1537 c-16 -49 -115 -557 -115 -592 0 -32 7 -51 24 -72 l24 -28
259 0 c296 0 310 3 343 78 24 54 124 557 113 567 -4 4 -43 19 -85 33 l-77 25
-11 -56 c-75 -367 -99 -455 -130 -472 -28 -15 -235 -13 -248 3 -7 8 3 77 34
232 24 121 43 224 41 229 -6 17 -168 67 -172 53z"/>
<path d="M2610 1546 c0 -22 -45 -229 -60 -280 -27 -85 -102 -197 -183 -273
-37 -34 -67 -65 -67 -67 0 -3 32 -28 71 -56 l72 -50 29 18 c17 9 67 56 112
104 79 83 83 86 106 72 21 -11 187 -13 943 -14 1018 0 969 -3 1001 64 15 32
96 382 96 416 0 11 -24 24 -82 43 -45 15 -85 23 -89 19 -3 -4 -21 -82 -39
-173 -18 -92 -36 -173 -41 -180 -5 -9 -39 -16 -101 -21 -133 -9 -1514 -8
-1571 1 -83 14 -84 18 -48 180 17 78 31 143 31 146 0 3 -40 16 -162 51 -10 3
-18 3 -18 0z"/>
<path d="M15873 1529 c-48 -24 -130 -109 -169 -175 -69 -117 -40 -210 84 -273
l55 -28 -75 -74 -74 -73 73 -54 74 -54 52 45 c101 87 203 235 238 347 23 74
27 189 10 243 -32 96 -169 145 -268 96z m115 -161 c18 -18 14 -54 -12 -106
-35 -69 -46 -76 -90 -58 -32 13 -36 19 -36 52 0 30 8 45 44 80 44 44 72 54 94
32z"/>
<path d="M16615 1537 c-16 -49 -115 -557 -115 -592 0 -32 7 -51 24 -72 l24
-28 259 0 c296 0 310 3 343 78 24 54 124 557 113 567 -4 4 -43 19 -85 33 l-77
25 -11 -56 c-75 -367 -99 -455 -130 -472 -28 -15 -235 -13 -248 3 -7 8 3 77
34 232 24 121 43 224 41 229 -6 17 -168 67 -172 53z"/>
<path d="M19023 1530 c-49 -25 -131 -110 -169 -176 -69 -117 -40 -210 84 -273
l55 -28 -75 -74 -74 -73 73 -54 73 -54 50 42 c28 23 71 69 97 101 l46 59 1791
2 1791 3 48 24 c67 33 91 75 132 231 38 148 42 197 21 239 -24 45 -52 51 -233
51 l-165 0 -38 -37 c-26 -27 -44 -59 -60 -108 -13 -38 -25 -76 -28 -82 -3 -10
18 -13 84 -13 l89 1 20 32 c19 30 24 32 79 32 82 0 88 -13 56 -107 -20 -59
-31 -76 -55 -88 -26 -13 -241 -15 -1655 -18 -894 -2 -1661 -1 -1706 3 l-81 7
14 51 c22 82 19 186 -6 235 -40 79 -172 115 -258 72z m115 -162 c18 -18 14
-54 -12 -106 -35 -69 -46 -76 -90 -58 -32 13 -36 19 -36 52 0 30 8 45 44 80
44 44 72 54 94 32z"/>
<path d="M25940 1546 c0 -22 -45 -229 -60 -280 -27 -85 -102 -197 -183 -273
-37 -34 -67 -65 -67 -67 0 -3 32 -28 71 -56 l72 -50 28 21 c44 31 151 152 188
213 18 31 44 84 56 119 24 65 79 316 72 323 -2 3 -34 13 -70 23 -36 11 -74 22
-86 26 -12 3 -21 4 -21 1z"/>
<path d="M26443 1530 c-49 -25 -131 -110 -169 -176 -69 -117 -40 -210 84 -273
l55 -28 -75 -74 -74 -73 73 -54 73 -54 50 42 c28 23 71 69 97 101 l46 59 184
0 c209 0 240 8 267 64 15 32 96 382 96 416 0 11 -24 24 -82 43 -45 15 -85 23
-89 19 -3 -4 -21 -83 -39 -175 -18 -93 -39 -175 -47 -183 -10 -10 -40 -14
-107 -14 l-93 0 14 53 c22 82 19 186 -6 235 -40 79 -172 115 -258 72z m115
-162 c18 -18 14 -54 -12 -106 -35 -69 -46 -76 -90 -58 -32 13 -36 19 -36 52 0
30 8 45 44 80 44 44 72 54 94 32z"/>
<path d="M4275 898 c-14 -64 -25 -114 -25 -120 0 -5 38 -8 84 -8 l83 0 7 53
c4 28 10 62 13 75 5 21 3 22 -76 22 -75 0 -81 -1 -86 -22z"/>
<path d="M4487 913 c-2 -5 -7 -26 -11 -48 -4 -22 -9 -53 -12 -68 l-6 -28 83 3
83 3 7 35 c4 19 10 52 13 73 l7 37 -80 0 c-44 0 -82 -3 -84 -7z"/>
<path d="M7545 898 c-14 -64 -25 -114 -25 -120 0 -5 38 -8 84 -8 l83 0 7 53
c4 28 10 62 13 75 5 21 3 22 -76 22 -75 0 -81 -1 -86 -22z"/>
<path d="M7757 913 c-2 -5 -7 -26 -11 -48 -4 -22 -9 -53 -12 -68 l-6 -28 83 3
83 3 7 35 c4 19 10 52 13 73 l7 37 -80 0 c-44 0 -82 -3 -84 -7z"/>
<path d="M14137 903 c-3 -10 -8 -36 -12 -58 -3 -22 -8 -48 -11 -57 -5 -16 3
-18 79 -18 l85 0 11 63 c6 35 11 69 11 75 0 8 -25 12 -79 12 -67 0 -80 -3 -84
-17z"/>
<path d="M22550 863 c-6 -32 -12 -66 -14 -75 -4 -16 5 -18 79 -18 l82 0 15 75
15 75 -83 0 -83 0 -11 -57z"/>
<path d="M26690 863 c-6 -32 -14 -66 -16 -75 -5 -16 3 -18 79 -18 l84 0 11 64
c7 35 12 68 12 75 0 7 -27 11 -79 11 l-80 0 -11 -57z"/>
<path d="M26892 856 c-7 -35 -12 -68 -12 -75 0 -7 27 -11 79 -11 88 0 84 -3
96 75 4 22 9 48 12 58 4 15 -4 17 -80 17 l-84 0 -11 -64z"/>
<path d="M26765 718 c-14 -65 -25 -114 -25 -121 0 -4 37 -7 82 -5 l82 3 13 60
c18 90 23 85 -67 85 -74 0 -80 -1 -85 -22z"/>
</g>
</svg>
