<?xml version="1.0" encoding="iso-8859-1"?>
<!-- Generator: Adobe Illustrator 18.1.1, SVG Export Plug-In . SVG Version: 6.00 Build 0)  -->
<svg version="1.1" id="Capa_1" xmlns="http://www.w3.org/2000/svg" xmlns:xlink="http://www.w3.org/1999/xlink" x="0px" y="0px"
	 viewBox="0 0 25.811 25.811" style="enable-background:new 0 0 25.811 25.811;" xml:space="preserve">
<g>
	<circle style="fill:#030104;" cx="22.321" cy="2.313" r="2.313"/>
	<path style="fill:#030104;" d="M17.183,2.936c1.035,0,2.561,0.632,2.561,2.157s-0.978,4.333-0.978,4.333s2.555,1.673,3.191,2.186
		c1.332,1.072,0.879,2.034-0.904,1.281c-2.895-1.222-4.254-1.825-4.472-2.588s-0.025-2.311-0.025-2.311l-1.673,0.695L7.805,3.487
		c0,0-0.65,0.462-0.99,0.462c-0.342,0-0.75-0.25-0.75-0.25l0.787-1.057l-0.844-1.03L7.18,2.111c-0.022,0,0.725-0.979,0.725-0.979
		S8.292,1.36,8.383,1.814S8.305,2.706,8.305,2.706l3.047,2.233C11.352,4.939,13.15,2.936,17.183,2.936z"/>
	<path style="fill:#030104;" d="M9.696,7.023c0,0,5.735,4.012,6.498,4.611c0.764,0.6,2.581,2.188,0.667,4.541
		c-1.874,2.304-3.882,4.561-3.882,4.561l-1.146-0.491l-1.472-0.764c0,0,2.759-3.442,3.25-4.097c0.49-0.654,0.334-1.194-0.332-1.694
		c-0.645-0.483-1.74-1.119-2.709-1.792C9.612,11.232,8.112,9.19,9.696,7.023z"/>
	<path style="fill:none;stroke:#030104;stroke-width:2;stroke-linecap:round;stroke-linejoin:round;stroke-miterlimit:10;" d="
		M1.054,13.118l19.78,11.344c0,0,2.561,1.144,3.924-0.709"/>
</g>
<g>
</g>
<g>
</g>
<g>
</g>
<g>
</g>
<g>
</g>
<g>
</g>
<g>
</g>
<g>
</g>
<g>
</g>
<g>
</g>
<g>
</g>
<g>
</g>
<g>
</g>
<g>
</g>
<g>
</g>
</svg>
