<?xml version="1.0" encoding="iso-8859-1"?>
<!-- Generator: Adobe Illustrator 18.0.0, SVG Export Plug-In . SVG Version: 6.00 Build 0)  -->
<!DOCTYPE svg PUBLIC "-//W3C//DTD SVG 1.1//EN" "http://www.w3.org/Graphics/SVG/1.1/DTD/svg11.dtd">
<svg version="1.1" id="Capa_1" xmlns="http://www.w3.org/2000/svg" xmlns:xlink="http://www.w3.org/1999/xlink" x="0px" y="0px"
	 viewBox="0 0 460.321 460.321" style="enable-background:new 0 0 460.321 460.321;" xml:space="preserve">
<g id="XMLID_237_">
	<circle id="XMLID_848_" cx="337.919" cy="42.972" r="42.96"/>
	<path id="XMLID_872_" d="M402.237,198.249c-7.426-1.178-65.776-10.433-72.702-11.532l-33.681-73.593l41.722,51.133l8.427-24.601
		c4.6-13.43-2.558-28.047-15.988-32.647l-55.236-18.92c-13.4-4.59-27.98,2.528-32.614,15.901l-70.557,10.833
		c-7.045,1.083-13.079,5.617-16.077,12.083l-35.764,77.132c-4.94,10.652-0.314,23.311,10.354,28.257
		c10.663,4.944,23.313,0.308,28.257-10.354l30.965-66.781l37.251-5.72l-33.465,97.701l-37.442,62.949L77.28,267.47
		c-12.196-6.632-27.46-2.119-34.089,10.079c-6.631,12.197-2.118,27.459,10.08,34.089l99.653,54.171
		c11.875,6.455,26.71,2.364,33.609-9.234l31.273-52.578l107.107,25.187v106c0,13.882,11.255,25.137,25.137,25.137
		s25.137-11.255,25.137-25.137V309.273c0-11.666-8.026-21.799-19.383-24.47l-55.082-12.953l8.423-24.59l-0.747-0.118
		c-18.704-2.967-30.773-18.018-32.843-28.308l-17.165-85.297l37.193,81.266c2.957,6.459,9.001,11.049,16.017,12.162
		c6.351,1.007,69.051,10.952,83.971,13.319c11.488,1.823,22.499-6.006,24.351-17.684
		C421.762,210.993,413.846,200.09,402.237,198.249z"/>
</g>
<g>
</g>
<g>
</g>
<g>
</g>
<g>
</g>
<g>
</g>
<g>
</g>
<g>
</g>
<g>
</g>
<g>
</g>
<g>
</g>
<g>
</g>
<g>
</g>
<g>
</g>
<g>
</g>
<g>
</g>
</svg>
