<?xml version="1.0" standalone="no"?>
<!DOCTYPE svg PUBLIC "-//W3C//DTD SVG 20010904//EN"
 "http://www.w3.org/TR/2001/REC-SVG-20010904/DTD/svg10.dtd">
<svg version="1.0" xmlns="http://www.w3.org/2000/svg"
 width="2304.000000pt" height="252.000000pt" viewBox="0 0 2304.000000 252.000000"
 preserveAspectRatio="xMidYMid meet">
<metadata>
Created by potrace 1.13, written by Peter Selinger 2001-2015
</metadata>
<g transform="translate(0.000000,252.000000) scale(0.100000,-0.100000)"
fill="#000000" stroke="none">
<path d="M0 2060 l0 -400 363 0 c327 0 371 -2 439 -19 255 -65 378 -244 366
-531 -1 -50 -2 -90 -1 -90 0 0 11 21 24 48 12 26 61 128 109 227 48 99 110
227 137 285 242 508 349 723 375 751 16 17 41 29 67 34 67 11 98 -13 151 -120
56 -112 146 -303 175 -370 12 -27 46 -99 75 -160 80 -169 216 -455 294 -620
24 -49 58 -122 77 -161 l34 -72 178 357 c99 200 189 366 203 379 30 26 74 29
102 5 12 -10 119 -218 239 -463 119 -245 284 -578 365 -740 l147 -295 0 773 1
772 205 0 205 0 2 -317 3 -317 240 316 240 317 264 0 263 1 -44 -52 c-541
-640 -580 -689 -564 -711 8 -12 158 -195 334 -407 l318 -385 265 -2 264 -3
-70 39 c-194 109 -332 285 -396 502 -33 115 -38 337 -10 450 100 401 513 670
952 620 372 -42 666 -286 750 -620 19 -74 21 -104 16 -230 -6 -171 -19 -227
-87 -366 -78 -161 -182 -271 -340 -359 l-65 -36 550 0 550 0 -61 34 c-251 135
-398 358 -434 660 -56 470 273 861 772 918 173 19 350 -12 512 -93 105 -52
160 -94 250 -190 137 -146 206 -325 206 -536 0 -238 -89 -461 -243 -616 -58
-58 -167 -135 -229 -162 -29 -13 6 -14 310 -15 l342 0 0 780 0 780 358 0 c285
0 369 -3 415 -15 196 -51 287 -177 287 -399 0 -137 -57 -257 -143 -303 -15 -8
-7 -12 40 -26 76 -21 136 -62 179 -123 56 -78 70 -138 65 -284 -9 -331 -5
-348 93 -395 67 -31 132 -34 141 -5 7 23 17 25 45 8 15 -10 22 -10 32 0 10 10
9 18 -3 39 -20 33 -8 96 25 133 12 14 36 48 51 75 24 42 60 87 184 230 10 11
41 52 69 90 29 39 61 81 71 94 l19 25 7 -36 c4 -21 2 -45 -4 -56 -6 -12 -11
-40 -11 -63 0 -31 -9 -55 -34 -93 -18 -28 -43 -72 -55 -97 -11 -26 -36 -62
-56 -80 -19 -18 -35 -39 -35 -45 0 -7 -16 -31 -35 -54 -19 -23 -35 -48 -35
-56 0 -20 70 -64 102 -64 16 0 41 -12 62 -31 32 -28 42 -30 123 -34 48 -3 125
-8 169 -11 76 -6 83 -5 93 14 9 18 8 22 -12 27 -61 17 -97 39 -92 55 3 10 6
51 6 91 0 41 5 96 10 124 5 27 14 90 19 139 11 96 15 103 99 196 23 25 54 63
69 85 15 22 33 46 39 53 7 7 18 31 24 52 7 22 24 54 40 72 42 50 56 34 110
-123 42 -125 61 -167 92 -212 21 -32 -16 -49 -98 -45 l-70 3 2 -65 c6 -203 39
-330 84 -330 20 0 21 4 15 44 -6 36 -2 54 18 93 29 55 65 100 104 125 41 27
59 23 73 -20 7 -20 27 -70 46 -110 18 -39 33 -84 34 -100 0 -15 6 -54 13 -87
l12 -60 44 -3 c34 -3 48 2 69 21 34 32 58 44 105 51 21 4 42 9 47 12 14 8 10
-10 -7 -35 -28 -39 -8 -45 169 -49 89 -2 178 -3 197 -3 63 2 81 51 18 51 -35
0 -89 23 -135 58 -40 29 -41 39 -8 52 23 9 31 27 27 70 -3 35 19 211 29 237 7
15 17 42 24 58 28 65 45 127 44 158 -2 75 -33 193 -68 257 -17 32 -62 191 -56
200 3 5 21 10 38 10 69 0 71 19 15 193 -17 54 -29 99 -27 101 2 2 28 6 57 10
42 5 53 4 58 -9 5 -11 11 -6 25 20 38 70 -1 113 -91 101 -63 -8 -67 0 -51 103
10 62 9 89 -2 146 -8 39 -19 81 -25 95 -8 20 -6 29 11 48 l21 23 -22 6 c-12 3
-22 8 -22 12 0 15 34 53 55 61 17 7 23 15 21 34 -2 18 2 26 11 26 10 0 13 6 9
16 -4 9 -1 23 5 30 9 11 8 19 -5 32 -24 28 -19 42 15 42 31 0 69 15 69 28 0 4
-23 8 -51 10 -37 2 -62 11 -91 32 -52 38 -97 50 -143 40 -89 -20 -115 -77 -74
-158 28 -58 30 -88 7 -118 -10 -12 -18 -26 -16 -31 1 -4 -22 -31 -50 -60 -65
-66 -87 -109 -102 -203 -6 -41 -20 -104 -31 -139 -25 -82 -24 -84 11 -124 27
-31 30 -42 30 -98 -1 -35 -7 -93 -15 -129 -20 -93 -19 -114 15 -187 37 -80 38
-86 44 -205 6 -133 -8 -184 -62 -225 -24 -18 -53 -31 -69 -31 -16 0 -41 -5
-57 -11 -19 -8 -32 -8 -35 -2 -7 10 -29 79 -52 161 -15 51 -42 114 -104 245
l-43 90 8 83 c5 46 11 86 14 89 3 3 30 -18 61 -48 38 -36 54 -58 50 -70 -3
-10 5 -29 19 -46 13 -16 26 -42 28 -58 l5 -30 8 33 c12 50 25 49 25 -2 0 -39
3 -46 19 -46 11 0 23 9 26 20 8 25 22 26 28 3 3 -10 3 9 0 42 -4 58 -7 62 -63
115 -33 32 -87 101 -127 165 l-69 110 9 120 c9 117 8 122 -21 219 l-30 99 23
23 c13 13 36 26 52 29 50 11 53 14 53 39 0 17 8 29 28 38 23 11 28 21 34 67 3
29 11 58 17 64 12 12 14 47 4 72 -3 10 -32 34 -64 55 -51 33 -63 37 -106 32
-26 -2 -54 -9 -61 -14 -26 -22 -43 -78 -45 -151 l-2 -75 -77 -72 c-86 -80
-129 -153 -148 -248 -6 -31 -20 -99 -32 -150 l-20 -94 -19 31 c-12 20 -19 50
-19 80 0 59 -31 165 -71 237 -16 30 -29 67 -29 82 0 15 -4 33 -9 40 -4 7 2 47
16 94 25 87 29 164 10 188 -44 56 -120 76 -180 49 -34 -15 -60 -74 -62 -141
-2 -80 -33 -123 -118 -167 -64 -33 -128 -84 -141 -112 -3 -8 -8 -10 -11 -4
-23 45 -50 78 -77 95 -31 18 -31 21 -29 82 1 35 7 65 12 66 5 2 9 10 9 17 0 8
13 15 33 17 35 3 45 30 14 36 -24 5 -52 33 -72 72 -9 18 -32 39 -53 48 -34 16
-410 17 -5354 20 l-5318 2 0 -400z m10889 -1003 c1 -30 -7 -63 -20 -89 -13
-25 -23 -69 -26 -115 -5 -67 -9 -77 -39 -107 -19 -19 -34 -41 -34 -50 0 -9
-19 -44 -42 -78 -24 -35 -54 -88 -68 -119 -14 -32 -34 -60 -47 -66 -23 -11
-23 -11 -18 35 7 49 40 146 85 247 45 98 110 283 110 310 0 25 22 64 34 59 6
-2 19 11 30 28 17 30 19 31 27 13 4 -11 8 -42 8 -68z m1560 -444 c-11 -32 -24
-85 -29 -118 -28 -190 -43 -219 -121 -231 -33 -6 -39 -2 -84 45 -52 55 -104
136 -123 190 -7 19 -12 35 -12 37 0 1 19 7 43 12 213 50 300 77 314 99 27 41
33 25 12 -34z"/>
<path d="M18445 2441 c-2 -5 -22 -12 -42 -16 -21 -4 -44 -11 -50 -17 -9 -7
-17 -7 -27 1 -9 7 -17 8 -20 2 -18 -28 -139 -20 -215 15 -32 15 -36 15 -97
-11 -36 -15 -78 -29 -94 -30 -30 -3 -60 -25 -60 -45 0 -6 -11 -26 -24 -43 -13
-18 -36 -56 -51 -84 -16 -30 -35 -53 -44 -53 -26 0 -540 88 -550 94 -3 2 -26
7 -51 10 -103 14 -222 43 -230 56 -7 11 -12 11 -23 2 -18 -15 -82 -9 -104 10
-10 8 -43 13 -92 12 -66 0 -84 -5 -136 -32 -33 -18 -90 -39 -127 -48 -38 -9
-68 -21 -68 -26 0 -5 -16 -23 -35 -41 -27 -24 -35 -40 -35 -66 0 -18 -9 -50
-19 -70 -11 -20 -23 -57 -26 -84 -5 -37 -12 -51 -33 -64 -15 -9 -48 -37 -75
-62 -48 -46 -48 -46 -75 -29 -15 10 -41 24 -59 33 -17 8 -52 29 -78 46 -26 17
-65 36 -88 41 -23 5 -49 15 -57 22 -8 7 -31 18 -50 25 -41 14 -80 48 -80 71 0
23 27 46 101 83 34 18 67 41 73 52 6 11 19 31 29 44 24 33 22 54 -10 100 -31
42 -94 81 -134 81 -37 0 -84 -55 -107 -124 -31 -91 -71 -110 -120 -56 -15 16
-49 44 -76 60 l-48 31 -37 -25 c-20 -15 -52 -42 -71 -61 -19 -19 -42 -35 -51
-35 -10 0 -31 -11 -47 -25 -17 -14 -39 -25 -50 -25 -15 0 -31 -22 -66 -93 -25
-51 -46 -100 -46 -109 0 -8 -10 -28 -22 -44 -35 -44 -38 -153 -7 -211 21 -39
22 -46 10 -75 -29 -74 -34 -107 -19 -131 9 -12 19 -37 22 -55 6 -24 14 -33 34
-38 15 -3 33 -7 40 -10 16 -5 32 -47 32 -87 1 -18 7 -43 15 -57 19 -33 19
-108 0 -153 -8 -20 -15 -47 -15 -59 0 -13 -11 -44 -25 -70 -14 -26 -25 -60
-25 -76 0 -16 -18 -63 -39 -105 -22 -42 -43 -91 -46 -109 -4 -18 -17 -46 -29
-63 -30 -42 -45 -67 -55 -90 -10 -24 -39 -50 -46 -43 -3 2 0 31 6 63 8 43 8
75 -1 117 -6 32 -8 63 -5 68 15 23 28 181 31 375 5 266 8 313 22 348 16 39 15
67 -4 74 -11 4 -14 13 -9 30 5 20 -5 13 -52 -32 -46 -46 -60 -55 -74 -47 -9 6
-37 13 -62 17 -26 4 -52 13 -58 21 -6 8 -24 14 -40 14 -15 0 -31 5 -34 10 -3
6 -14 10 -24 10 -10 0 -24 7 -31 15 -10 12 -9 20 4 40 9 14 16 45 16 75 0 28
6 60 13 71 10 17 10 23 0 26 -9 3 -13 28 -13 78 0 91 -16 123 -77 155 -29 16
-49 33 -51 45 -3 23 49 85 71 85 19 0 35 96 18 113 -6 6 -11 26 -11 43 0 32 1
33 48 37 l47 3 -45 2 c-41 2 -47 6 -64 37 -11 20 -27 35 -37 35 -10 0 -21 5
-24 10 -3 6 -28 10 -56 10 -27 0 -49 -4 -49 -10 0 -5 -7 -10 -15 -10 -8 0 -15
-6 -15 -14 0 -7 -7 -19 -15 -26 -17 -14 -18 -87 -2 -107 6 -9 6 -17 0 -25 -6
-7 -11 -31 -11 -52 -1 -21 -8 -46 -17 -56 -8 -9 -15 -21 -15 -26 0 -13 -328
-7 -388 7 -35 8 -47 6 -66 -8 -75 -57 -90 -294 -20 -325 32 -15 30 -32 -8 -62
l-33 -25 2 -98 c1 -54 6 -128 11 -165 7 -55 6 -65 -5 -56 -7 6 -13 18 -13 28
0 13 -53 84 -90 120 -3 3 -27 31 -53 62 l-48 57 1 83 c0 46 1 94 1 108 -1 14
2 44 5 67 4 34 9 42 32 48 17 5 22 9 12 12 -8 3 -21 6 -27 8 -9 3 -10 11 -4
28 6 15 4 34 -5 56 -18 43 -18 65 1 81 9 7 14 19 11 26 -2 7 4 20 15 30 13 12
19 30 19 59 0 25 6 48 15 55 12 10 12 16 -5 47 -27 51 -65 73 -126 73 -40 0
-55 -5 -72 -23 -12 -13 -22 -29 -22 -35 0 -7 -5 -21 -12 -31 -9 -15 -9 -25 0
-46 19 -40 15 -104 -5 -112 -10 -4 -28 -17 -40 -30 -16 -17 -33 -23 -63 -23
-34 0 -42 -4 -50 -25 -6 -15 -20 -27 -37 -30 -15 -4 -35 -11 -43 -16 -8 -5
-23 -12 -32 -15 -10 -4 -18 -10 -18 -15 0 -5 -16 -9 -35 -9 -34 0 -46 -12 -25
-25 21 -13 8 -24 -35 -31 -52 -7 -65 -24 -65 -83 0 -22 -4 -43 -10 -46 -5 -3
-10 -22 -10 -40 0 -25 -6 -37 -21 -46 -14 -7 -18 -14 -11 -21 6 -6 6 -24 2
-46 -5 -20 -10 -63 -12 -95 -5 -57 -4 -57 26 -65 22 -6 32 -15 34 -32 5 -30
29 -49 64 -50 15 0 46 -7 68 -16 31 -13 40 -21 40 -40 0 -13 -5 -24 -11 -24
-5 0 -7 -5 -3 -11 3 -6 8 -42 9 -79 2 -43 9 -77 19 -92 9 -12 16 -39 16 -60 0
-20 5 -40 10 -43 6 -3 10 -34 10 -68 0 -39 6 -71 15 -83 8 -12 15 -50 17 -90
l3 -69 50 -5 c48 -5 50 -6 50 -35 0 -29 -1 -30 -60 -36 -33 -4 -82 -12 -110
-18 -27 -7 -60 -14 -72 -17 -17 -3 -23 -12 -23 -29 0 -14 5 -25 10 -25 6 0 10
-7 10 -17 0 -9 12 -28 26 -42 27 -28 53 -85 61 -137 7 -48 58 -104 94 -104 33
0 34 4 19 94 -9 55 -8 63 16 103 18 32 31 43 49 43 l25 0 0 -114 c0 -66 -4
-117 -10 -121 -5 -3 -10 -24 -10 -45 0 -21 -8 -52 -17 -69 -26 -44 -11 -52
103 -56 55 -2 114 -8 132 -15 45 -17 87 2 71 31 -5 11 -18 19 -29 19 -23 0
-80 47 -80 66 0 7 -14 29 -31 49 l-31 35 5 132 c7 185 16 225 58 259 21 18 46
29 66 29 17 0 35 4 38 10 3 5 16 10 29 10 12 0 27 5 33 11 6 6 26 14 45 18
l33 7 -3 69 c-2 39 -8 72 -13 73 -5 2 -9 14 -9 27 0 12 -9 44 -21 71 -11 27
-25 60 -31 74 -6 14 -17 38 -25 53 -8 16 -13 37 -10 47 3 11 -1 21 -10 25 -12
4 -14 15 -10 46 4 34 1 44 -21 67 -40 41 -60 75 -63 109 -4 35 15 63 42 63 23
0 109 -81 109 -102 0 -9 7 -21 15 -28 9 -8 14 -30 14 -67 -1 -61 9 -78 40 -68
17 5 21 15 23 53 1 36 2 40 5 15 3 -22 14 -40 35 -55 28 -19 45 -22 142 -23
61 0 117 -4 124 -8 20 -13 16 -176 -5 -199 -16 -18 -16 -20 10 -42 33 -29 35
-69 7 -150 -19 -56 -64 -165 -81 -198 -5 -10 -9 -23 -9 -28 0 -6 -11 -35 -24
-63 -45 -98 -65 -147 -59 -147 3 0 -2 -9 -11 -19 -13 -15 -15 -24 -8 -38 10
-16 12 -15 22 12 6 17 11 31 10 33 0 1 6 10 15 18 8 9 15 24 15 34 0 10 6 20
14 23 9 4 12 14 9 26 -3 13 0 23 10 27 9 3 13 12 11 19 -3 7 0 24 7 37 7 13
14 25 14 28 4 22 18 50 26 50 5 0 9 7 9 15 0 17 30 55 44 55 6 0 5 -5 -2 -12
-7 -7 -12 -27 -12 -44 0 -18 -4 -35 -9 -38 -16 -10 -23 -81 -10 -111 11 -27
16 -50 36 -150 3 -16 12 -39 19 -49 11 -16 11 -24 0 -45 -8 -14 -15 -56 -18
-93 l-4 -68 47 0 c26 0 51 4 54 10 3 5 33 10 66 10 56 0 60 -2 54 -20 -8 -24
-6 -24 155 -21 95 2 118 6 134 21 24 23 13 40 -25 40 -43 0 -85 27 -122 80
-23 33 -24 172 -2 190 8 7 15 27 15 46 0 18 4 35 9 38 4 3 11 25 15 48 15 104
19 118 32 129 19 16 19 138 0 174 -9 18 -15 59 -15 113 0 47 -5 90 -11 96 -5
5 -10 29 -10 52 0 24 -5 46 -11 50 -6 3 -9 19 -5 34 4 21 0 32 -16 42 -20 14
-20 16 -5 44 24 45 29 64 33 127 2 33 6 63 10 68 7 12 47 12 59 0 6 -5 33 -11
60 -14 221 -23 250 -28 270 -48 16 -16 17 -21 6 -28 -9 -6 -11 -16 -5 -32 9
-28 7 -116 -6 -214 -5 -38 -12 -173 -15 -300 -3 -126 -9 -261 -15 -300 -16
-118 -10 -265 11 -265 5 0 9 12 9 28 0 56 10 72 39 65 41 -10 130 -79 116 -90
-29 -23 -47 -77 -42 -123 4 -36 2 -52 -9 -60 -8 -7 -14 -16 -14 -21 0 -5 1209
-9 2820 -9 2762 0 2821 0 2902 20 95 22 145 45 205 95 l43 36 41 -21 c38 -20
42 -20 65 -5 14 9 29 13 34 10 14 -9 50 13 50 31 0 8 -13 20 -30 25 -53 19
-35 53 26 51 43 -2 97 33 118 76 21 44 20 67 -5 102 l-22 29 33 38 c92 104
217 233 227 233 9 1 70 80 91 118 9 15 21 22 35 20 32 -4 29 -47 -4 -67 -55
-33 -109 -76 -109 -88 0 -7 -6 -16 -14 -20 -11 -7 -47 -64 -51 -83 -1 -3 -8
-18 -15 -35 -8 -16 -15 -71 -16 -122 -3 -80 0 -97 21 -142 14 -28 25 -53 25
-57 0 -3 15 -25 34 -50 85 -111 226 -184 356 -184 85 0 175 18 225 44 25 14
45 24 46 23 0 -1 2 -15 4 -31 2 -15 6 -30 9 -33 3 -3 111 -8 240 -11 l236 -5
0 29 c0 27 -5 31 -61 48 -76 25 -101 53 -88 99 5 17 9 46 9 64 0 17 5 35 10
38 6 4 8 15 5 26 -4 10 -2 19 3 19 5 0 17 35 27 77 10 43 22 82 26 87 5 6 9
25 9 44 0 32 26 93 43 100 10 5 9 59 -3 80 -8 14 -32 146 -54 304 -2 14 -7 31
-10 37 -4 6 -9 47 -11 92 -2 47 -10 90 -18 103 -9 14 -13 37 -10 66 2 24 0 53
-6 64 -5 12 -12 46 -14 77 -5 54 -4 56 18 51 31 -6 81 47 90 96 4 20 11 42 16
48 4 6 14 51 21 101 11 83 15 93 40 108 16 9 38 29 49 44 19 26 24 28 57 20
41 -10 122 -2 122 12 0 5 -9 14 -20 21 -26 17 -25 45 2 67 12 10 18 23 14 29
-9 15 -132 16 -142 1 -11 -18 -155 -7 -178 14 -11 9 -33 17 -49 17 -26 0 -29
3 -23 25 20 78 -106 158 -183 117 -39 -21 -81 -89 -81 -131 0 -33 -45 -109
-69 -115 -9 -2 -33 -7 -53 -10 -51 -9 -95 -53 -110 -112 -7 -27 -16 -51 -19
-54 -19 -15 -19 -50 0 -69 16 -16 17 -22 7 -31 -39 -32 -63 -232 -35 -295 7
-16 15 -68 18 -115 5 -70 9 -85 24 -88 15 -3 17 5 17 60 l0 63 20 -33 c14 -23
20 -50 20 -93 0 -52 2 -60 18 -57 20 4 29 55 13 71 -14 14 -14 27 -1 27 6 0
10 -6 10 -14 0 -7 9 -20 21 -27 14 -10 20 -25 21 -49 0 -19 6 -41 12 -49 6 -8
12 -81 14 -179 l4 -165 -28 20 c-52 36 -113 63 -156 68 -76 9 -108 24 -108 49
0 13 -9 31 -20 41 -28 25 -25 42 10 60 38 20 39 46 4 115 -25 49 -28 51 -62
49 -98 -5 -139 19 -159 92 -6 25 -23 61 -38 82 -59 88 -74 131 -77 219 -1 53
3 92 11 106 13 24 66 52 98 52 12 0 30 22 52 64 27 50 31 67 23 83 -6 10 -13
39 -16 62 -7 66 -36 91 -106 91 -47 0 -64 -5 -98 -30 -48 -34 -62 -57 -62 -99
0 -39 -41 -71 -65 -51 -8 7 -15 21 -15 31 0 38 -21 39 -210 10 -112 -17 -173
-29 -225 -43 -55 -14 -108 -47 -88 -55 16 -6 5 -103 -14 -125 -13 -15 -14 -22
-3 -49 13 -31 13 -31 -57 -97 -98 -94 -105 -107 -108 -205 -2 -45 -6 -97 -10
-115 -10 -43 18 -75 95 -109 47 -21 75 -45 73 -63 0 -3 11 -22 24 -43 32 -51
25 -101 -19 -136 -28 -23 -32 -23 -43 -8 -21 29 -172 33 -267 8 -110 -29 -175
-73 -233 -160 -45 -68 -49 -72 -79 -66 -17 3 -67 9 -111 14 -81 9 -120 20
-216 63 -79 36 -116 48 -194 65 -74 16 -77 17 -114 28 -21 7 -23 12 -19 61 3
30 7 56 10 59 3 3 20 -8 38 -25 34 -32 53 -36 94 -20 29 11 34 40 11 64 -8 8
-15 17 -15 21 0 3 -11 21 -24 38 -14 18 -22 38 -18 44 8 12 79 63 88 63 3 0
10 5 17 10 13 12 103 77 137 100 12 8 32 22 44 31 32 24 135 58 191 63 76 7
169 40 232 83 32 21 66 41 75 45 10 4 18 12 18 18 0 5 5 10 10 10 21 0 83 78
93 117 10 42 -97 163 -143 162 -17 0 -109 -50 -172 -94 -45 -32 -133 -119
-170 -171 -78 -106 -102 -135 -136 -160 -20 -16 -63 -54 -94 -84 -31 -30 -66
-62 -78 -70 -20 -14 -47 -34 -76 -58 -35 -30 -84 -36 -84 -11 0 21 -65 73 -99
78 -27 5 -37 12 -39 29 -2 12 -10 22 -18 22 -10 0 -14 13 -14 51 0 43 -5 55
-29 80 -20 19 -35 27 -47 22 -25 -9 -44 23 -44 75 0 63 -44 99 -130 107 -93 9
-168 -121 -126 -217 6 -13 -4 -22 -48 -43 -61 -29 -72 -53 -34 -79 l21 -15
-26 -83 c-15 -46 -31 -114 -37 -152 -10 -64 -50 -187 -69 -210 -31 -39 -89
-168 -94 -209 -15 -123 -49 -133 -147 -43 l-71 65 -143 -2 -144 -2 -43 30 -44
31 -6 84 c-3 47 -12 99 -18 117 -9 23 -10 37 -2 52 6 11 11 35 11 55 0 19 7
63 15 98 19 85 21 139 6 176 -9 22 -10 36 -2 50 11 20 7 54 -17 153 -15 61
-15 331 0 352 7 9 44 26 82 37 74 21 96 16 96 -20 0 -13 23 -30 73 -54 40 -20
77 -36 83 -36 6 0 19 -9 29 -20 10 -11 22 -17 27 -14 5 3 15 1 23 -6 7 -6 32
-13 55 -14 22 -2 43 -6 47 -9 3 -4 -5 -24 -19 -44 -19 -29 -129 -231 -209
-383 -55 -105 -139 -288 -139 -302 0 -10 41 64 92 164 50 101 97 190 103 198
10 12 84 148 182 333 13 24 19 27 44 22 26 -6 30 -3 45 32 9 21 21 46 26 56 6
13 5 23 -3 34 -13 15 -27 14 -99 -2 -32 -7 -85 21 -99 52 -6 13 -19 23 -30 23
-11 0 -23 9 -26 20 -4 11 -15 20 -26 20 -16 0 -18 3 -9 19 8 16 5 23 -16 39
-25 18 -26 20 -12 43 11 17 15 45 13 96 -2 65 -1 72 18 77 12 3 26 1 33 -5 16
-13 114 18 122 40 3 9 13 21 21 27 21 17 26 105 7 142 -16 31 -91 78 -101 63z
m-1414 -180 c79 -16 161 -32 183 -35 21 -4 41 -8 45 -11 4 -2 30 -7 57 -11 27
-3 52 -8 57 -11 4 -2 20 -6 35 -9 105 -17 298 -58 305 -64 4 -4 -25 -42 -65
-85 l-73 -78 0 -57 c0 -53 3 -62 43 -108 45 -54 51 -72 27 -92 -9 -7 -13 -15
-11 -17 2 -3 -11 -34 -30 -70 -19 -36 -34 -77 -34 -90 0 -16 -7 -27 -19 -30
-11 -3 -17 -11 -15 -18 5 -12 -21 -75 -30 -75 -2 0 -19 37 -37 81 -24 60 -40
86 -61 98 -15 9 -28 19 -28 24 0 4 -5 7 -10 7 -7 0 -7 -6 -1 -18 10 -19 51
-133 51 -142 -1 -22 -111 183 -135 251 -8 21 -34 72 -58 111 -44 74 -97 187
-97 206 0 6 -32 49 -71 97 -55 67 -84 92 -130 115 -57 29 -67 39 -52 53 8 9
-13 12 154 -22z m-1211 -374 c37 -1 165 -64 176 -86 16 -31 7 -56 -24 -72 -15
-8 -31 -19 -37 -26 -19 -22 -128 -73 -156 -73 -32 0 -139 45 -151 63 -4 7 -8
55 -8 108 l0 96 93 -4 c50 -3 99 -5 107 -6z m-296 -163 c3 -9 6 -23 6 -33 0
-9 12 -28 28 -42 45 -41 97 -59 170 -59 42 0 75 -5 87 -14 18 -13 17 -16 -13
-77 -18 -36 -32 -77 -32 -92 0 -27 -38 -77 -58 -77 -20 0 -43 -53 -51 -120 -5
-39 -16 -82 -25 -95 -9 -13 -16 -31 -16 -39 0 -8 -7 -19 -15 -23 -16 -9 -75
-98 -75 -113 0 -6 -9 -10 -20 -10 -11 0 -20 -4 -20 -10 0 -13 -99 -62 -115
-57 -15 6 -26 55 -14 63 16 10 9 41 -13 56 -21 14 -21 20 -20 202 0 103 6 201
11 219 8 22 8 43 1 67 -16 55 -12 95 10 115 11 10 20 29 20 42 0 17 8 26 28
33 41 15 55 24 66 46 21 36 50 45 60 18z m2298 -256 c15 -44 19 -69 13 -105
-10 -68 -6 -167 9 -253 11 -61 11 -80 1 -100 -36 -69 -38 -88 -16 -126 12 -20
20 -38 18 -40 -5 -5 -115 118 -164 181 -69 90 -77 138 -44 266 25 96 44 139
73 166 28 26 38 39 64 78 16 25 19 27 22 9 2 -10 12 -45 24 -76z m3445 -20
c11 -24 26 -54 32 -68 7 -14 22 -43 35 -66 13 -22 29 -57 36 -78 7 -21 27 -55
46 -76 24 -26 31 -43 27 -58 -3 -12 -10 -22 -17 -23 -6 0 -44 -2 -85 -3 -88
-1 -96 8 -54 67 50 69 51 83 6 122 -21 19 -42 34 -47 35 -5 0 -17 6 -25 14 -9
7 -54 33 -100 57 -125 66 -133 106 -23 128 124 24 132 21 169 -51z m-266 -265
c28 -17 31 -17 60 0 40 23 56 22 65 -5 5 -17 -2 -29 -37 -60 -28 -23 -54 -38
-71 -38 -30 0 -38 -17 -13 -26 19 -8 20 -58 0 -74 -37 -31 -71 21 -45 70 8 16
8 21 -4 26 -8 3 -22 28 -31 56 -13 42 -14 52 -3 59 21 13 47 10 79 -8z m489
-148 c10 -28 -16 -83 -59 -125 -20 -20 -71 -74 -114 -120 -69 -74 -82 -83
-112 -82 -18 1 -50 11 -72 23 -21 12 -51 29 -68 39 -39 22 -43 57 -12 101 27
40 146 162 169 175 9 5 72 9 139 9 113 0 123 -1 129 -20z m-7206 -169 c20 -30
36 -66 36 -80 0 -13 5 -28 10 -31 6 -3 10 -17 10 -30 0 -13 -4 -27 -10 -30 -5
-3 -10 -19 -10 -35 0 -16 -4 -32 -10 -35 -5 -3 -10 -14 -10 -23 0 -9 -7 -30
-16 -47 -16 -31 -21 -159 -8 -218 5 -26 -3 -60 -29 -114 -16 -35 -52 -29 -93
15 -19 20 -46 49 -60 64 -25 26 -25 26 -21 180 6 185 11 212 48 260 24 30 29
47 29 89 0 63 19 89 66 89 28 0 37 -7 68 -54z m7569 -5 c16 -6 33 -11 39 -11
14 0 111 -59 120 -73 4 -6 2 -19 -3 -29 -5 -10 -7 -18 -3 -18 3 0 1 -7 -6 -15
-15 -18 -22 -435 -8 -474 7 -20 4 -28 -19 -47 -28 -22 -107 -51 -178 -65 -36
-7 -60 -4 -170 20 -60 12 -215 124 -215 154 0 5 -9 20 -20 34 -11 14 -20 37
-20 51 0 13 -9 40 -21 58 -16 27 -18 37 -9 54 6 12 9 28 6 35 -3 8 4 42 16 77
35 107 130 213 186 206 23 -3 29 -10 39 -53 7 -27 19 -62 28 -77 8 -14 15 -38
15 -52 0 -14 8 -33 19 -43 20 -20 41 -74 41 -108 0 -28 22 -37 65 -29 24 4 35
13 39 29 8 33 0 49 -34 62 -17 6 -34 23 -40 37 -5 14 -14 26 -19 26 -5 0 -15
17 -22 38 -6 20 -17 48 -24 62 -7 14 -18 50 -24 80 -11 52 -11 56 10 73 18 14
36 17 103 13 44 -2 94 -9 109 -15z m-1337 -6 c28 -2 94 -34 94 -45 0 -5 -11
-22 -25 -38 -15 -18 -25 -42 -25 -60 0 -33 -34 -89 -93 -157 -32 -36 -37 -38
-49 -23 -12 15 -165 97 -191 102 -7 2 -29 6 -49 10 l-38 8 18 30 c17 30 98
104 159 146 17 12 46 22 65 22 18 0 40 5 48 10 8 6 26 7 40 4 14 -4 35 -8 46
-9z m-5298 -7 c7 -7 12 -26 12 -43 0 -35 26 -66 56 -66 11 -1 44 6 74 15 73
21 80 20 80 -10 0 -37 -15 -59 -55 -83 -21 -12 -35 -28 -35 -40 0 -10 -20 -45
-44 -78 -23 -32 -55 -79 -70 -104 -26 -45 -37 -52 -134 -90 -13 -5 -34 -6 -48
-3 -17 4 -31 0 -45 -12 -20 -18 -21 -18 -51 14 -27 32 -29 37 -23 90 5 41 13
62 28 75 51 41 67 60 67 77 0 9 9 29 20 43 11 14 20 36 20 49 0 12 23 58 50
101 50 77 72 91 98 65z m3676 -43 c3 -8 12 -12 20 -9 22 8 26 -9 12 -49 -12
-35 -53 -77 -75 -77 -6 0 -11 -5 -11 -10 0 -6 -8 -14 -17 -17 -10 -4 -29 -17
-43 -30 -24 -22 -40 -29 -40 -18 0 24 56 135 85 166 19 21 35 44 35 49 0 16
27 12 34 -5z m1840 -34 c20 -21 26 -35 22 -48 -4 -10 -10 -61 -13 -113 -3 -52
-9 -100 -14 -106 -5 -7 -40 -12 -80 -12 l-70 -1 -21 44 c-20 42 -21 45 -5 63
9 10 17 22 17 27 0 5 6 16 14 24 7 9 27 41 43 72 16 30 33 61 37 67 12 20 41
13 70 -17z m-85 -311 c18 -5 45 -17 58 -25 23 -15 23 -18 9 -34 -9 -10 -16
-25 -16 -35 0 -9 -5 -26 -11 -37 -14 -27 11 -66 49 -75 15 -4 31 -9 35 -11 16
-9 -29 -46 -93 -76 -61 -30 -72 -32 -175 -31 -98 0 -116 3 -165 27 -87 42
-112 67 -66 67 32 0 85 24 116 52 38 34 57 68 65 116 7 41 8 42 44 42 20 0 46
7 57 15 23 17 47 19 93 5z"/>
<path d="M1923 1973 c-19 -43 -37 -86 -39 -96 -1 -10 -15 -44 -30 -75 -94
-202 -143 -316 -138 -323 3 -5 0 -9 -6 -9 -6 0 -8 -4 -5 -10 3 -5 1 -10 -5
-10 -6 0 -8 -4 -5 -10 3 -5 1 -10 -5 -10 -6 0 -8 -4 -5 -10 3 -5 2 -10 -4 -10
-6 0 -7 -7 -4 -17 5 -12 3 -14 -7 -8 -9 5 -11 4 -6 -3 4 -6 -3 -29 -14 -52
-11 -22 -17 -40 -13 -40 5 0 116 29 248 65 132 36 267 73 301 82 l61 17 -39
85 c-22 47 -46 100 -53 116 -8 17 -38 84 -68 150 -95 210 -112 244 -120 245
-5 0 -24 -35 -44 -77z"/>
<path d="M3116 1302 c-27 -59 -76 -167 -108 -240 -32 -73 -66 -144 -74 -158
-9 -13 -15 -24 -13 -24 2 0 42 14 89 31 47 16 137 48 200 70 63 21 121 41 127
44 9 3 3 25 -21 77 -47 104 -147 308 -149 308 -1 0 -24 -49 -51 -108z"/>
<path d="M380 1136 l0 -196 38 0 c20 0 77 5 125 10 144 15 187 57 187 185 0
70 -13 106 -52 142 -35 33 -64 40 -186 48 l-112 8 0 -197z"/>
<path d="M9610 1185 l0 -145 58 0 c74 1 150 28 175 62 28 38 29 128 1 165 -26
35 -101 62 -176 63 l-58 0 0 -145z"/>
<path d="M6188 1290 c-121 -31 -247 -133 -298 -243 -97 -206 3 -468 219 -575
72 -36 79 -37 180 -37 98 0 111 2 174 32 129 61 219 175 253 319 45 194 -50
380 -241 471 -65 31 -87 36 -163 39 -48 2 -104 -1 -124 -6z"/>
<path d="M8008 1281 c-226 -74 -351 -293 -293 -510 86 -326 460 -449 706 -232
83 72 129 163 149 288 28 174 -67 341 -244 429 -67 33 -85 37 -168 40 -72 3
-106 0 -150 -15z"/>
<path d="M4330 421 l0 -331 256 0 256 0 -28 38 c-16 20 -131 169 -256 331
l-228 293 0 -331z"/>
<path d="M995 710 c-13 -21 -129 -72 -194 -86 -42 -9 -130 -14 -243 -14 l-178
0 0 -260 0 -260 170 0 c168 0 171 0 179 22 5 13 57 122 116 243 59 121 121
249 138 285 17 36 32 68 34 73 6 11 -15 8 -22 -3z"/>
<path d="M9610 559 l0 -162 113 6 c123 6 176 19 212 53 51 47 53 158 4 210
-34 36 -108 54 -226 54 l-103 0 0 -161z"/>
<path d="M10305 243 c-52 -59 -102 -90 -200 -125 l-80 -28 130 0 c72 0 147 5
168 11 36 10 38 13 32 37 -4 15 -7 55 -6 90 1 34 1 62 -1 61 -2 0 -21 -21 -43
-46z"/>
</g>
</svg>
