<?xml version="1.0"?><svg width="218.16225" height="217.35884" xmlns="http://www.w3.org/2000/svg" xmlns:xlink="http://www.w3.org/1999/xlink">
 <defs>
  <linearGradient id="linearGradient3946">
   <stop stop-color="#ffffff" id="stop3948" offset="0"/>
   <stop stop-color="#ffffff" stop-opacity="0" id="stop3950" offset="1"/>
  </linearGradient>
  <linearGradient y2="209.50504" x2="-495.71429" y1="875.21936" x1="-495.71429" gradientUnits="userSpaceOnUse" id="linearGradient2924" xlink:href="#linearGradient3693-7"/>
  <linearGradient id="linearGradient3693-7">
   <stop stop-color="#ffffff" id="stop3695-4" offset="0"/>
   <stop stop-color="#ffffff" stop-opacity="0" id="stop3697-0" offset="1"/>
  </linearGradient>
  <filter color-interpolation-filters="sRGB" id="filter3932">
   <feGaussianBlur id="feGaussianBlur3934" stdDeviation="2.141543"/>
  </filter>
  <linearGradient gradientUnits="userSpaceOnUse" y2="883.38348" x2="-154.17836" y1="-115.88824" x1="-1181.7566" id="linearGradient3952" xlink:href="#linearGradient3946"/>
  <linearGradient y2="0" x2="0.5" y1="1" x1="0.5" id="linearGradient3962" xlink:href="#linearGradient3693-7"/>
  <linearGradient y2="1.012264" x2="1.013037" y1="-0.488788" x1="-0.530536" id="linearGradient3964" xlink:href="#linearGradient3946"/>
 </defs>
 <metadata id="metadata3115">image/svg+xml</metadata>
 <g>
  <title>Layer 1</title>
  <path fill="none" stroke="#008000" stroke-width="30" stroke-miterlimit="4" stroke-dashoffset="0" d="m213.454361,108.680298c0,57.433395 -46.731064,103.992386 -104.376755,103.992386c-57.645679,0 -104.376738,-46.55899 -104.376738,-103.992386c0,-57.433395 46.731058,-103.992373 104.376738,-103.992373c57.645691,0 104.376755,46.558978 104.376755,103.992373z" id="path2930"/>
  <path fill="#bfbf00" id="path3790" d="m200.424973,108.680298c0,50.263947 -40.897614,91.010956 -91.347359,91.010956c-50.449749,0 -91.347349,-40.747009 -91.347349,-91.010956c0,-50.263966 40.8976,-91.010965 91.347349,-91.010965c50.449745,0 91.347359,40.747 91.347359,91.010965z"/>
  <path fill="#008000" d="m109.070885,17.665188c-50.449753,0 -91.340254,40.751141 -91.340254,91.015118c0,50.263969 40.890501,91.015099 91.340254,91.015099c50.44976,0 91.353722,-40.751129 91.353722,-91.015099c0,-50.263977 -40.903961,-91.015118 -91.353722,-91.015118zm23.073463,27.93409c1.367538,-0.195663 1.960159,2.229649 2.793518,3.001873c6.505417,11.522015 13.485229,22.984085 19.004059,34.994064c7.440872,16.095253 1.355606,39.293869 -15.055511,46.348343c-9.377151,2.971603 -11.570122,-11.479683 -4.029114,-15.162224c12.087082,-10.038696 5.590591,-27.438828 1.020706,-39.802612l-13.363274,45.848045c-6.161835,16.633316 -6.640038,39.171417 -23.718124,48.460785c-18.103279,9.291428 -41.017803,-9.061081 -37.349991,-29.337738c1.711182,-21.591408 31.227554,-31.60434 44.96505,-15.454079l14.907753,-48.79435c3.735741,-9.705856 4.970818,-21.149708 10.193703,-29.838051c0.230286,-0.147106 0.435867,-0.236107 0.631226,-0.264057z" id="path2999"/>
  <path opacity="0.641921" fill="url(#linearGradient3962)" d="m199.424988,105.680298c0,50.263947 -40.897644,91.010956 -91.347382,91.010956c-50.449738,0 -91.347351,-40.747009 -91.347351,-91.010956c0,-50.263962 40.897614,-91.010971 91.347351,-91.010971c50.449738,0 91.347382,40.747009 91.347382,91.010971z" id="path2936"/>
  <path opacity="0.234513" fill="#ffffff" fill-opacity="0.964467" filter="url(#filter3932)" id="path2934" d="m109.231865,16.568869c-50.449741,0 -91.349081,40.738665 -91.349081,91.002626c0,29.365211 13.968199,55.483223 35.635622,72.124596c-14.689785,-16.150848 -23.639383,-37.574783 -23.639383,-61.087273c0,-50.263962 40.899336,-91.012686 91.349073,-91.012686c20.969246,0 40.285515,7.041616 55.703423,18.878038c-16.713058,-18.369587 -40.854416,-29.905302 -67.699654,-29.905302z"/>
  <path fill="none" stroke="url(#linearGradient3964)" stroke-width="30" stroke-miterlimit="4" stroke-dashoffset="0" id="path3936" d="m213.454346,108.180298c0,57.433395 -46.731079,103.992386 -104.376709,103.992386c-57.645721,0 -104.37677,-46.55899 -104.37677,-103.992386c0,-57.433395 46.731049,-103.992373 104.37677,-103.992373c57.64563,0 104.376709,46.558977 104.376709,103.992373z"/>
 </g>
</svg>